<svg width="76" height="81" viewBox="0 0 76 81" fill="none" xmlns="http://www.w3.org/2000/svg">
<path fill-rule="evenodd" clip-rule="evenodd" d="M0 7.5C0 3.35786 3.33592 0 7.45098 0H68.549C72.6641 0 76 3.35786 76 7.5V73.5C76 77.6421 72.6641 81 68.549 81H7.45098C3.33592 81 0 77.6421 0 73.5V7.5ZM21.9556 13L30.5 36.9341L38.9987 13H48V46H41.1234V36.9794L41.8088 21.4087L32.8303 46H28.124L19.1684 21.4313L19.8538 36.9794V46H13V13H21.9556ZM22.1353 65.8703C21.0511 65.8703 20.509 65.4031 20.509 64.4686V52H15V53.7155H18.2322V64.2594C18.2322 65.3473 18.5304 66.205 19.1267 66.8326C19.7366 67.4463 20.5768 67.7531 21.6474 67.7531C22.7452 67.7531 23.6667 67.5439 24.4121 67.1255L23.8429 65.4937C23.2466 65.7448 22.6774 65.8703 22.1353 65.8703ZM35.8695 57.7113C35.0292 56.6653 33.8366 56.1423 32.2917 56.1423C30.7602 56.1423 29.5609 56.6722 28.6935 57.7322C27.8397 58.7922 27.4128 60.2008 27.4128 61.9582C27.4128 63.7713 27.8329 65.1939 28.6732 66.2259C29.527 67.2441 30.7264 67.7531 32.2713 67.7531C33.8027 67.7531 34.9953 67.2301 35.8491 66.1841C36.7029 65.1381 37.1298 63.7225 37.1298 61.9372C37.1298 60.152 36.7097 58.7434 35.8695 57.7113ZM30.4214 58.9456C30.8415 58.2901 31.465 57.9623 32.2917 57.9623C33.1048 57.9623 33.7146 58.2901 34.1212 58.9456C34.5278 59.5872 34.7311 60.5844 34.7311 61.9372C34.7311 63.304 34.5278 64.3152 34.1212 64.9707C33.7146 65.6262 33.098 65.954 32.2713 65.954C31.4446 65.954 30.828 65.6332 30.4214 64.9916C30.0149 64.3361 29.8116 63.325 29.8116 61.9582C29.8116 60.6053 30.0149 59.6011 30.4214 58.9456ZM49.8069 56.9791C49.4139 57.1185 48.9667 57.2162 48.4652 57.272C47.9773 57.3138 47.3878 57.3347 46.6966 57.3347C47.3472 57.6416 47.835 58.0251 48.1603 58.4854C48.4856 58.9456 48.6482 59.5035 48.6482 60.159C48.6482 60.8842 48.472 61.5258 48.1196 62.0837C47.7808 62.6416 47.2929 63.0809 46.656 63.4017C46.019 63.7225 45.2669 63.8828 44.3995 63.8828C43.7897 63.8828 43.3018 63.8201 42.9359 63.6946C42.7868 63.8061 42.6716 63.9456 42.5903 64.113C42.509 64.2664 42.4683 64.4337 42.4683 64.6151C42.4683 65.1729 42.9088 65.4519 43.7897 65.4519H45.6599C46.4188 65.4519 47.0964 65.5844 47.6927 65.8494C48.2891 66.1144 48.7498 66.484 49.0751 66.9582C49.4139 67.4184 49.5833 67.9414 49.5833 68.5272C49.5833 69.629 49.1225 70.4798 48.201 71.0795C47.2794 71.6932 45.9513 72 44.2166 72C43.0104 72 42.055 71.8675 41.3502 71.6025C40.6591 71.3515 40.1644 70.9749 39.8663 70.4728C39.5817 69.9847 39.4394 69.3501 39.4394 68.569H41.4722C41.4722 68.9874 41.5467 69.3152 41.6958 69.5523C41.8585 69.8033 42.1363 69.9847 42.5293 70.0962C42.9223 70.2218 43.4915 70.2845 44.2369 70.2845C45.3211 70.2845 46.1003 70.1451 46.5747 69.8661C47.049 69.6011 47.2862 69.2036 47.2862 68.6736C47.2862 68.2273 47.0964 67.8787 46.717 67.6276C46.3511 67.3905 45.8496 67.272 45.2127 67.272H43.3628C42.4005 67.272 41.6687 67.0697 41.1673 66.6653C40.6794 66.2608 40.4355 65.7517 40.4355 65.1381C40.4355 64.7615 40.5371 64.3989 40.7404 64.0502C40.9437 63.7015 41.235 63.4017 41.6145 63.1506C40.9776 62.802 40.51 62.3835 40.2118 61.8954C39.9272 61.3933 39.7849 60.7796 39.7849 60.0544C39.7849 59.2873 39.9747 58.6109 40.3541 58.0251C40.7336 57.4254 41.2621 56.9651 41.9398 56.6444C42.6174 56.3096 43.3899 56.1423 44.2572 56.1423C45.4227 56.1562 46.3443 56.0725 47.0219 55.8912C47.7131 55.7099 48.4449 55.424 49.2174 55.0335L49.8069 56.9791ZM44.2775 57.7741C43.5593 57.7741 43.0172 57.9833 42.6513 58.4017C42.2854 58.8061 42.1024 59.357 42.1024 60.0544C42.1024 60.7657 42.2854 61.3305 42.6513 61.749C43.0307 62.1534 43.5796 62.3556 44.2979 62.3556C44.9755 62.3556 45.4905 62.1534 45.8428 61.749C46.1952 61.3445 46.3714 60.7657 46.3714 60.0126C46.3714 58.5202 45.6734 57.7741 44.2775 57.7741ZM57.9507 65.5774C57.5441 65.8424 56.9817 65.9749 56.2635 65.9749C55.6671 65.9749 55.0912 65.8703 54.5355 65.6611C53.9934 65.4379 53.4988 65.1451 53.0515 64.7824L51.8522 66.205C53.0177 67.2371 54.4881 67.7531 56.2635 67.7531C57.6051 67.7531 58.73 67.4672 59.638 66.8954C60.546 66.3096 61 65.4519 61 64.3222C61 63.3459 60.7086 62.6137 60.1259 62.1255C59.5567 61.6374 58.6893 61.2259 57.5238 60.8912C56.7784 60.682 56.216 60.5007 55.8365 60.3473C55.4571 60.1799 55.186 60.0056 55.0234 59.8243C54.8743 59.643 54.7998 59.4128 54.7998 59.1339C54.7998 58.325 55.4774 57.9205 56.8326 57.9205C57.9033 57.9205 58.9197 58.2483 59.8819 58.9038L60.8577 57.4184C59.7193 56.5676 58.3573 56.1423 56.7717 56.1423C55.4571 56.1423 54.4136 56.4351 53.6411 57.0209C52.8686 57.5927 52.4823 58.3598 52.4823 59.3222C52.4823 60.2287 52.7737 60.9261 53.3565 61.4142C53.9528 61.8884 54.8405 62.2789 56.0195 62.5858C56.7513 62.781 57.3002 62.9693 57.6661 63.1506C58.032 63.318 58.276 63.5063 58.3979 63.7155C58.5199 63.9107 58.5809 64.1688 58.5809 64.4895C58.5809 64.9498 58.3708 65.3124 57.9507 65.5774Z" fill="#212225"/>
</svg>
