<svg width="53" height="49" viewBox="0 0 53 49" fill="none" xmlns="http://www.w3.org/2000/svg">
<rect x="8.77966" y="3" width="35.4407" height="41" rx="5" fill="#212225"/>
<path d="M34.2187 19.3137L34.2192 19.3063L34.2195 19.2988C34.2259 19.1268 34.2486 19.0185 34.2708 18.9561C34.2944 18.9657 34.3253 18.9802 34.3644 19.0019C34.5276 19.0924 34.7527 19.2651 35.0442 19.5445L35.0442 19.5445L35.0485 19.5485C35.6276 20.0907 36.2941 20.82 37.0489 21.7421L37.0488 21.7422L37.0559 21.7506C37.8213 22.6448 38.6185 23.6482 39.4477 24.7613L39.4476 24.7613L39.4518 24.7668C40.3026 25.8767 41.0916 26.9376 41.8189 27.9494L41.8188 27.9494L41.8249 27.9576C42.5657 28.945 43.2033 29.8031 43.7379 30.5322C44.2598 31.2438 44.6406 31.7305 44.8506 31.9259C45.2135 32.2727 45.6297 32.5005 46.0976 32.5553L46.1184 32.5577L46.1394 32.5584C46.5818 32.5729 47.0896 32.4538 47.6432 32.243C48.1039 32.0676 48.5212 31.7964 48.8947 31.4378C49.279 31.0796 49.594 30.6794 49.8358 30.237C50.0761 29.7974 50.2343 29.3425 50.3039 28.8737C50.3858 28.3674 50.3509 27.8826 50.1799 27.4334C50.077 27.1633 49.9522 26.9211 49.7966 26.7243C49.6786 26.538 49.4799 26.2427 49.2048 25.8436L49.2003 25.837L49.1956 25.8306C48.1753 24.4469 47.1044 22.9867 45.9829 21.4499C44.8693 19.881 43.7488 18.3506 42.6213 16.8585C41.5107 15.3569 40.4088 13.9351 39.3155 12.5935C38.2183 11.247 37.1699 10.0919 36.1704 9.13071C35.1889 8.16171 34.2612 7.41776 33.3873 6.91328C32.5016 6.40192 31.632 6.19772 30.8486 6.49603C30.3031 6.70378 29.8354 7.00222 29.4574 7.39685C29.0631 7.77906 28.7667 8.28338 28.5526 8.88414C28.3298 9.4663 28.1704 10.1764 28.0665 11.0041C27.9634 11.8248 27.8784 12.8279 27.8106 14.0111L27.8104 14.0152C27.7002 16.2588 27.5742 18.0591 27.4327 19.4193L27.4326 19.4193L27.432 19.4258C27.3089 20.7809 27.1498 21.8186 26.9597 22.5516L26.9591 22.5537C26.7764 23.2714 26.5727 23.7114 26.3817 23.9418C26.1806 24.1681 25.9437 24.3317 25.6659 24.4374C25.4802 24.5082 25.1453 24.5113 24.589 24.3029C24.0272 24.0742 23.3802 23.7106 22.6459 23.2018C21.9183 22.6621 21.1303 22.0004 20.2814 21.2147C19.4513 20.4218 18.6196 19.5447 17.7867 18.5829L17.7851 18.5811C15.6874 16.1825 13.9207 14.4984 12.4912 13.5666C11.0774 12.6103 9.73236 12.2356 8.534 12.692C7.2439 13.1832 6.37189 14.2791 5.8713 15.8497L5.87113 15.8503C5.38705 17.3752 5.2209 19.3157 5.34767 21.6499L5.34766 21.6499L5.34782 21.6526C5.48593 23.965 5.92822 26.6352 6.66911 29.6592L6.6691 29.6592L6.66978 29.6619C7.42232 32.6608 8.46803 35.9164 9.8052 39.4278C10.8607 42.1995 11.8553 44.1948 12.7994 45.3595C13.2765 45.948 13.7918 46.3826 14.3539 46.6107C14.9303 46.8446 15.5242 46.8478 16.1089 46.6251C16.6261 46.4282 17.0883 46.1596 17.4909 45.8175C17.9 45.4784 18.2291 45.1 18.4669 44.6796C18.7272 44.2796 18.9007 43.8527 18.9803 43.4008L18.9805 43.4009L18.9826 43.387C19.0548 42.8976 19.0044 42.4195 18.8299 41.9611C18.4018 40.837 17.9284 39.765 17.4095 38.7453C16.9242 37.7487 16.4852 36.7346 16.0924 35.703C15.4255 33.9516 14.8563 32.3448 14.3845 30.8819C13.923 29.3898 13.5748 28.1122 13.3381 27.0471L13.3378 27.0457C13.092 25.9542 12.9718 25.1194 12.9635 24.5266L12.9636 24.5266L12.9634 24.5208C12.9555 24.2104 12.9802 24.0101 13.0149 23.8942C13.0179 23.8842 13.0208 23.8754 13.0235 23.8678C13.0251 23.868 13.0268 23.8682 13.0286 23.8685C13.0818 23.8763 13.1635 23.8991 13.2781 23.9515L13.2999 23.9615L13.3225 23.9693C13.526 24.0398 13.7973 24.2094 14.1383 24.5263C16.3506 26.6111 18.1853 28.2919 19.6414 29.5672L19.6414 29.5672L19.6449 29.5702C21.1215 30.8398 22.3744 31.8124 23.4001 32.4801L23.4001 32.4801L23.4058 32.4837C24.4451 33.1404 25.3643 33.5623 26.1491 33.6996L26.1594 33.7014L26.1697 33.7028C26.9549 33.8066 27.7265 33.7137 28.4775 33.4277C29.2765 33.1234 29.9975 32.5452 30.6483 31.7366L30.6484 31.7367L30.6544 31.729C31.2942 30.9015 31.8532 29.8736 32.3373 28.6556C32.8221 27.4357 33.22 26.0349 33.5337 24.4567C33.8669 22.8683 34.0948 21.1536 34.2187 19.3137ZM13.0442 23.8217C13.0443 23.8218 13.0436 23.823 13.042 23.8249C13.0434 23.8226 13.0442 23.8216 13.0442 23.8217Z" fill="white" stroke="black"/>
</svg>
