<svg width="1710" height="1300" viewBox="0 0 1710 1300" fill="none" xmlns="http://www.w3.org/2000/svg">
<path d="M1069.22 137.819C1060.15 141.381 1055.26 152.764 1054.57 171.968C1049.62 247.638 1040.54 317.959 1027.32 382.931C1014.85 447.607 999.115 504.599 980.107 553.908C961.099 603.217 939.416 644.111 915.057 676.59C890.377 708.199 864.051 729.494 836.08 740.476C808.864 751.16 781.128 754.577 752.871 750.725C725.049 745.706 690.619 729.831 649.583 703.098C609.303 676.069 559.561 636.315 500.358 583.835C441.911 531.058 368.133 461.384 279.025 374.813C264.281 360.674 250.926 351.47 238.962 347.2C227.432 341.763 218.265 340.38 211.461 343.052C201.633 346.91 197.061 362.654 197.745 390.283C198.107 417.042 203.3 453.363 213.323 499.246C223.025 544.258 237.235 597.962 255.954 660.357C275.108 721.586 298.185 788.747 325.184 861.84C341.255 905.348 359.216 948.115 379.066 990.139C399.673 1031.87 418.494 1075.79 435.529 1121.91C441.315 1137.57 442.999 1153.85 440.582 1170.74C437.843 1186.76 431.816 1202.08 422.5 1216.69C414.261 1231.89 402.573 1245.94 387.435 1258.86C373.053 1271.48 356.412 1281.5 337.513 1288.92C299.713 1303.76 262.855 1288.34 226.939 1242.66C191.022 1196.98 151.85 1116.71 109.423 1001.84C55.7461 856.527 13.8552 722.026 -16.2498 598.342C-45.9203 473.49 -63.4925 363.816 -68.9665 269.319C-74.0059 173.656 -67.2775 95.7896 -48.7813 35.7216C-29.8506 -25.5134 1.91642 -64.8863 46.5196 -82.3972C85.8309 -97.8306 132.895 -86.4171 187.711 -48.1567C242.962 -11.0633 312.751 57.1874 397.079 156.595C431.067 197.055 465.065 234.023 499.071 267.501C533.833 300.682 566.289 328.79 596.438 351.826C627.022 373.695 654.6 389.769 679.172 400.05C703.423 409.46 722.73 411.345 737.094 405.706C751.457 400.067 763.779 391.244 774.06 379.237C784.775 366.063 793.948 344.029 801.58 313.135C809.647 281.074 816.181 236.662 821.183 179.899C826.94 122.84 832.043 47.6047 836.492 -45.8061C839.208 -94.6969 842.605 -135.885 846.683 -169.369C850.762 -202.853 856.929 -230.681 865.186 -252.854C873.121 -275.896 883.741 -294.014 897.046 -307.208C910.029 -321.272 926.348 -332.163 946.004 -339.879C969.439 -349.08 997.8 -343.775 1031.09 -323.963C1064.37 -304.152 1100.44 -274.472 1139.28 -234.923C1178.89 -195.671 1220.62 -148.291 1264.5 -92.7825C1308.37 -37.2741 1352.62 21.5766 1397.23 83.7698C1442.6 145.666 1487.7 209.165 1532.52 274.265C1577.77 338.198 1620.99 398.948 1662.16 456.514C1673.77 473.877 1681.77 486.177 1686.18 493.415C1691.02 499.486 1695.37 507.742 1699.22 518.184C1704.69 532.977 1705.99 549.402 1703.14 567.459C1700.72 584.35 1695.18 600.974 1686.5 617.332C1677.83 633.689 1666.46 648.614 1652.4 662.104C1639.1 675.298 1624.51 685.012 1608.63 691.244C1587.47 699.555 1569.87 703.474 1555.85 703.002C1542.26 701.362 1529.33 694.482 1517.06 682.36C1510.39 676.013 1496.25 657.652 1474.64 627.277C1453.03 596.902 1427.29 561.178 1397.4 520.105C1367.95 477.865 1336.02 433.608 1301.61 387.334C1267.96 340.763 1235.54 298.692 1204.35 261.12C1173.6 222.381 1146.11 191.324 1121.9 167.951C1097.36 143.708 1079.8 133.664 1069.22 137.819Z" fill="white" fill-opacity="0.6"/>
<path d="M1057.04 172.096L1057.05 172.059L1057.05 172.022C1057.39 162.58 1058.76 155.286 1061.03 150.002C1063.27 144.767 1066.33 141.637 1070.09 140.164C1074.29 138.514 1080.46 139.502 1089.08 144.432C1097.59 149.302 1107.94 157.705 1120.15 169.767L1120.16 169.777L1120.17 169.786C1144.28 193.059 1171.69 224.026 1202.41 262.716L1202.43 262.737L1202.44 262.757C1233.59 300.281 1265.98 342.308 1299.6 388.841L1299.61 388.855L1299.62 388.868C1334.01 435.124 1365.93 479.361 1395.36 521.578L1395.38 521.599L1395.39 521.619C1425.28 562.687 1451.02 598.403 1472.62 628.769C1494.15 659.044 1508.44 677.629 1515.33 684.191C1527.87 696.583 1541.27 703.782 1555.52 705.501L1555.62 705.513L1555.73 705.517C1570.23 706.005 1588.19 701.957 1609.5 693.59C1625.72 687.223 1640.59 677.314 1654.11 663.908C1668.35 650.242 1679.88 635.105 1688.69 618.497C1697.49 601.905 1703.13 585.004 1705.6 567.802C1708.5 549.386 1707.18 532.521 1701.55 517.271C1697.66 506.745 1693.23 498.269 1688.22 491.938C1683.76 484.634 1675.76 472.338 1664.22 455.08L1664.2 455.048L1664.18 455.016C1623.01 397.459 1579.8 336.718 1534.55 272.794C1489.72 207.681 1444.62 144.17 1399.24 82.2599C1354.61 20.0418 1310.34 -38.8364 1266.45 -94.3741C1222.53 -149.934 1180.73 -197.387 1141.05 -236.721C1102.12 -276.357 1065.89 -306.187 1032.37 -326.139C998.796 -346.12 969.601 -351.829 945.137 -342.225C925.186 -334.392 908.548 -323.311 895.283 -308.954C881.654 -295.423 870.872 -276.953 862.854 -253.683C854.509 -231.265 848.311 -203.233 844.219 -169.64C840.132 -136.081 836.731 -94.8339 834.013 -45.9096L834.013 -45.8995L834.012 -45.8894C829.564 47.5005 824.463 122.685 818.712 179.681L818.711 179.697L818.709 179.713C813.712 236.423 807.193 280.68 799.175 312.548L799.172 312.559C791.57 343.331 782.514 364.902 772.175 377.628C762.165 389.311 750.191 397.879 736.227 403.361C722.734 408.658 704.155 407.031 680.119 397.708C655.783 387.523 628.387 371.566 597.921 349.784C567.87 326.822 535.498 298.787 500.801 265.669C466.86 232.254 432.919 195.348 398.98 154.947L398.972 154.938C314.619 55.4994 244.659 -12.9595 189.122 -50.2493C134.054 -88.6802 86.1011 -100.622 45.6534 -84.7424C0.113439 -66.8637 -32.0697 -26.7159 -51.1498 35.0023L-51.1507 35.005C-69.7696 95.4717 -76.4938 173.67 -71.4461 269.491L-71.4454 269.505C-65.9603 364.192 -48.3577 474.018 -18.6644 598.966L-18.6611 598.979C11.471 722.775 53.3927 857.369 107.096 1002.76C149.537 1117.66 188.817 1198.24 224.988 1244.24C243.096 1267.27 261.599 1282.89 280.543 1290.81C299.562 1298.77 318.886 1298.92 338.379 1291.26C357.523 1283.75 374.413 1273.58 389.026 1260.76C404.335 1247.7 416.221 1233.44 424.628 1217.96C434.089 1203.1 440.233 1187.48 443.028 1171.13L443.034 1171.1L443.039 1171.06C445.515 1153.76 443.789 1137.06 437.856 1120.99C420.795 1074.81 401.943 1030.81 381.3 989.004C361.483 947.052 343.554 904.359 327.511 860.927C300.526 787.871 277.465 720.755 258.327 659.579C239.622 597.229 225.432 543.597 215.749 498.673L215.748 498.666C205.738 452.845 200.587 416.717 200.228 390.21L200.228 390.196L200.227 390.182C199.888 376.475 200.863 365.934 203.042 358.43C205.229 350.9 208.472 346.91 212.327 345.397C218.16 343.107 226.535 344.132 237.887 349.485L237.994 349.536L238.106 349.576C249.61 353.681 262.672 362.624 277.299 376.649C366.415 463.228 440.214 532.922 498.69 585.725L498.699 585.733L498.707 585.74C557.948 638.253 607.782 678.088 648.191 705.203L648.204 705.212L648.218 705.221C689.356 732.02 724.107 748.099 752.4 753.203L752.452 753.212L752.504 753.219C781.183 757.129 809.343 753.657 836.946 742.821C865.453 731.629 892.122 709.989 916.995 678.133L917.011 678.114L917.025 678.094C941.562 645.378 963.349 604.26 982.418 554.793C1001.49 505.314 1017.26 448.174 1029.75 383.389C1043 318.293 1052.09 247.86 1057.04 172.096Z" stroke="#4353FF" stroke-opacity="0.02" stroke-width="5"/>
</svg>
